' Uml taken from https://github.com/vintonliu/webrtc_code_read/blob/89011ea2095f80dbfb91987d1fb0d784a849c4a2/puml/Android-Native-VideoTrack.puml for test purposes

@startuml Android-Native-VideoTrack

set namespaceSeparator ::

abstract class RefCountInterface {
    + {abstract} void AddRef()
    + {abstract} RefCountReleaseStatus Release()
}

abstract class NotifierInterface {
    + {abstract} void RegisterObserver(ObserverInterface* observer)
    + {abstract} void UnregisterObserver(ObserverInterface* observer)
}

abstract class ObserverInterface {
    + {abstract} void OnChanged()
}

abstract class MediaStreamTrackInterface {
    + {abstract} std::string kind()
    + {abstract} bool set_enabled(bool enable)
    + {abstract} bool enabled()
    + {abstract} TrackState state()
}

RefCountInterface <|-- MediaStreamTrackInterface
NotifierInterface <|-- MediaStreamTrackInterface

abstract class VideoSourceInterface {
    + {abstract} void AddOrUpdateSink(VideoSinkInterface<VideoFrameT>* sink, const VideoSinkWants& wants)
    + {abstract} void RemoveSink(VideoSinkInterface<VideoFrameT>* sink)
}

class VideoTrackInterface {
    + VideoTrackSourceInterface* GetSource()
    + void set_content_hint(ContentHint hint)
    + ContentHint content_hint()
}

MediaStreamTrackInterface <|-- VideoTrackInterface
VideoSourceInterface <|-- VideoTrackInterface

class Notifier {
    + void RegisterObserver(ObserverInterface* observer)
    + void UnregisterObserver(ObserverInterface* observer)
    + void FireOnChanged()
    # std::list<ObserverInterface*> observers_
}

class MediaStreamTrack {
    + MediaStreamTrackInterface::TrackState state()
    + bool enabled()
    + bool set_enabled(bool enable)
    # bool set_state(MediaStreamTrackInterface::TrackState new_state)

    - bool enabled_
    - std::string id_
    - MediaStreamTrackInterface::TrackState state_
}
VideoTrackInterface <|-- Notifier
Notifier <|-- MediaStreamTrack

class VideoSourceBase {
    # SinkPair* FindSinkPair(const VideoSinkInterface<webrtc::VideoFrame>* sink)

    - std::vector<SinkPair> sinks_
}
VideoSourceInterface <|-- VideoSourceBase

class VideoTrack {
    + void AddOrUpdateSink(rtc::VideoSinkInterface<VideoFrame>* sink, const rtc::VideoSinkWants& wants)
    + void RemoveSink(rtc::VideoSinkInterface<VideoFrame>* sink)
    + VideoTrackSourceInterface* GetSource()
    + ContentHint content_hint()
    + void set_content_hint(ContentHint hint)
    + bool set_enabled(bool enable)
    + std::string kind()
    - OnChanged()

    rtc::scoped_refptr<VideoTrackSourceInterface> video_source_
}
MediaStreamTrack <|-- VideoTrack
VideoSourceBase <|-- VideoTrack
ObserverInterface <|-- VideoTrack
@enduml
